<svg width="31" height="31" viewBox="0 0 31 31" fill="none" xmlns="http://www.w3.org/2000/svg">
<g clip-path="url(#clip0_117_165)">
<path d="M29.0625 2.90289L21.3057 2.90292V0.972198C21.3057 0.436964 20.8722 0.00344849 20.337 0.00344849C19.8017 0.00344849 19.3682 0.436964 19.3682 0.972198V2.90243H11.6182V0.972198C11.6182 0.436964 11.1847 0.00344849 10.6495 0.00344849C10.1142 0.00344849 9.68072 0.436964 9.68072 0.972198V2.90243H1.9375C0.867516 2.90243 0 3.76995 0 4.83993V29.0587C0 30.1286 0.867516 30.9962 1.9375 30.9962H29.0625C30.1325 30.9962 31 30.1286 31 29.0587V4.83993C31 3.7704 30.1325 2.90289 29.0625 2.90289ZM29.0625 29.0587H1.9375V4.83993H9.68072V5.81595C9.68072 6.35115 10.1142 6.7847 10.6495 6.7847C11.1847 6.7847 11.6182 6.35115 11.6182 5.81595V4.84042H19.3682V5.81643C19.3682 6.35167 19.8017 6.78518 20.337 6.78518C20.8722 6.78518 21.3057 6.35167 21.3057 5.81643V4.84042H29.0625V29.0587ZM22.2812 15.4966H24.2188C24.7535 15.4966 25.1875 15.0626 25.1875 14.5279V12.5904C25.1875 12.0556 24.7535 11.6216 24.2188 11.6216H22.2812C21.7465 11.6216 21.3125 12.0556 21.3125 12.5904V14.5279C21.3125 15.0626 21.7465 15.4966 22.2812 15.4966ZM22.2812 23.2462H24.2188C24.7535 23.2462 25.1875 22.8126 25.1875 22.2774V20.3399C25.1875 19.8052 24.7535 19.3712 24.2188 19.3712H22.2812C21.7465 19.3712 21.3125 19.8052 21.3125 20.3399V22.2774C21.3125 22.8131 21.7465 23.2462 22.2812 23.2462ZM16.4688 19.3712H14.5312C13.9965 19.3712 13.5625 19.8052 13.5625 20.3399V22.2774C13.5625 22.8126 13.9965 23.2462 14.5312 23.2462H16.4688C17.0035 23.2462 17.4375 22.8126 17.4375 22.2774V20.3399C17.4375 19.8056 17.0035 19.3712 16.4688 19.3712ZM16.4688 11.6216H14.5312C13.9965 11.6216 13.5625 12.0556 13.5625 12.5904V14.5279C13.5625 15.0626 13.9965 15.4966 14.5312 15.4966H16.4688C17.0035 15.4966 17.4375 15.0626 17.4375 14.5279V12.5904C17.4375 12.0552 17.0035 11.6216 16.4688 11.6216ZM8.71875 11.6216H6.78125C6.2465 11.6216 5.8125 12.0556 5.8125 12.5904V14.5279C5.8125 15.0626 6.2465 15.4966 6.78125 15.4966H8.71875C9.2535 15.4966 9.6875 15.0626 9.6875 14.5279V12.5904C9.6875 12.0552 9.2535 11.6216 8.71875 11.6216ZM8.71875 19.3712H6.78125C6.2465 19.3712 5.8125 19.8052 5.8125 20.3399V22.2774C5.8125 22.8126 6.2465 23.2462 6.78125 23.2462H8.71875C9.2535 23.2462 9.6875 22.8126 9.6875 22.2774V20.3399C9.6875 19.8056 9.2535 19.3712 8.71875 19.3712Z" fill="black"/>
</g>
<defs>
<clipPath id="clip0_117_165">
<rect width="31" height="31" fill="white"/>
</clipPath>
</defs>
</svg>
