<svg width="32" height="32" viewBox="0 0 32 32" fill="none" xmlns="http://www.w3.org/2000/svg">
<path d="M27.6005 23.0015L21.0483 20.389L19.5138 19.0963C19.1086 18.7538 18.5101 18.7791 18.1343 19.1527L16.0009 21.2738L13.8616 19.1518C13.4854 18.7789 12.8877 18.7546 12.4828 19.0961L10.9485 20.3888L4.39595 23.0017C2.28636 23.8421 2.28805 31.3141 2.1069 32H29.8931C29.7124 31.3158 29.7113 23.841 27.6005 23.0015Z" fill="black"/>
<path d="M24.2359 6.76656C23.7809 2.96649 20.2612 0 16 0C11.7388 0 8.21911 2.96649 7.76411 6.76656C7.38606 7.00869 7.13483 7.43135 7.13483 7.91344V11.0005C7.13483 11.7525 7.7445 12.3625 8.49681 12.3625L9.72728 12.3594C10.4874 16.3307 13.1847 18.5903 16 18.5903C18.8153 18.5903 20.4509 17.252 21.5356 14.7857C20.7075 15.4352 19.5038 16.0294 17.8204 16.1521C17.6657 16.3825 17.4028 16.5343 17.1044 16.5343H16.318C15.842 16.5343 15.4561 16.1484 15.4561 15.6724C15.4561 15.1963 15.842 14.8104 16.318 14.8104H17.1044C17.3832 14.8104 17.6303 14.9434 17.7878 15.1487C20.4944 14.9315 21.7673 13.2899 22.2748 12.3631L23.5033 12.3626C24.2555 12.3626 24.8653 11.7526 24.8653 11.0006V7.91359C24.8651 7.43135 24.6139 7.00869 24.2359 6.76656ZM22.226 6.90565C21.4227 4.36985 19.1021 2.86237 16 2.86237C12.8978 2.86237 10.5758 4.36892 9.77174 6.90349C9.64732 6.79111 9.50237 6.70157 9.34267 6.64098C9.8568 3.75546 12.6462 1.54368 16 1.54368C19.3538 1.54368 22.1432 3.75546 22.6574 6.64098C22.4967 6.70204 22.3509 6.79219 22.226 6.90565Z" fill="black"/>
</svg>
