<svg width="29" height="29" viewBox="0 0 29 29" fill="none" xmlns="http://www.w3.org/2000/svg">
<g clip-path="url(#clip0_117_171)">
<path d="M28.9355 11.1332C28.7804 10.6559 28.3678 10.308 27.8712 10.2359L19.449 9.01225L15.6824 1.37978C15.4603 0.929759 15.0019 0.644806 14.5001 0.644806C13.9982 0.644806 13.5399 0.929759 13.3178 1.37978L9.55148 9.01216L1.12902 10.2358C0.632414 10.308 0.21975 10.6559 0.064705 11.1331C-0.0903405 11.6105 0.038952 12.1344 0.398352 12.4847L6.49285 18.4248L5.05358 26.8139C4.96876 27.3086 5.17206 27.8084 5.57805 28.1034C5.80771 28.2703 6.07975 28.3552 6.3531 28.3552C6.5629 28.3552 6.77358 28.3052 6.96651 28.2038L14.5 24.2434L22.0334 28.2038C22.2275 28.3058 22.44 28.3544 22.6505 28.3552C23.3779 28.3542 23.9671 27.7643 23.9671 27.0368C23.9671 26.9356 23.9557 26.8369 23.9341 26.7422L22.5073 18.4248L28.6018 12.4847C28.9613 12.1344 29.0905 11.6105 28.9355 11.1332Z" fill="black"/>
</g>
<defs>
<clipPath id="clip0_117_171">
<rect width="29" height="29" fill="white"/>
</clipPath>
</defs>
</svg>
