<svg width="62" height="62" viewBox="0 0 62 62" fill="none" xmlns="http://www.w3.org/2000/svg">
<path d="M30.38 11.7305C28.4419 11.7313 26.523 12.1148 24.7335 12.8591C22.944 13.6035 21.3191 14.6939 19.9521 16.0678C18.5851 17.4417 17.5029 19.0721 16.7676 20.8653C16.0323 22.6586 15.6584 24.5794 15.6674 26.5175C15.6674 36.7351 26.2074 46.1033 29.45 48.5833C29.7222 48.808 30.0642 48.931 30.4172 48.931C30.7702 48.931 31.1122 48.808 31.3844 48.5833C34.6332 46.0289 45.0864 36.7351 45.0864 26.5175C45.0954 24.5799 44.7217 22.6596 43.9868 20.8667C43.2519 19.0739 42.1703 17.4438 40.8039 16.07C39.4376 14.6961 37.8134 13.6056 36.0246 12.8609C34.2358 12.1162 32.3176 11.7321 30.38 11.7305ZM30.38 32.6307C29.1538 32.6307 27.955 32.267 26.9355 31.5858C25.9159 30.9045 25.1212 29.9362 24.6519 28.8033C24.1827 27.6704 24.0599 26.4238 24.2991 25.2211C24.5384 24.0184 25.1288 22.9137 25.9959 22.0466C26.863 21.1795 27.9678 20.589 29.1704 20.3498C30.3731 20.1106 31.6197 20.2334 32.7526 20.7026C33.8855 21.1719 34.8538 21.9665 35.5351 22.9861C36.2164 24.0057 36.58 25.2044 36.58 26.4307C36.58 28.075 35.9268 29.652 34.7641 30.8147C33.6013 31.9775 32.0243 32.6307 30.38 32.6307Z" fill="black"/>
</svg>
