<svg width="44" height="49" viewBox="0 0 44 49" fill="none" xmlns="http://www.w3.org/2000/svg">
<path d="M7.9306 40.4733C10.0883 40.4733 11.8375 38.5253 11.8375 36.1224C11.8375 33.7194 10.0883 31.7715 7.9306 31.7715C5.77287 31.7715 4.02368 33.7194 4.02368 36.1224C4.02368 38.5253 5.77287 40.4733 7.9306 40.4733Z" fill="black"/>
<path d="M34.9108 40.4733C37.0685 40.4733 38.8177 38.5253 38.8177 36.1224C38.8177 33.7194 37.0685 31.7715 34.9108 31.7715C32.7531 31.7715 31.0039 33.7194 31.0039 36.1224C31.0039 38.5253 32.7531 40.4733 34.9108 40.4733Z" fill="black"/>
<path d="M35.6473 13.3779H27.582V36.0826H29.2256C29.2256 32.5819 31.7763 29.7413 34.9198 29.7413C38.0633 29.7413 40.614 32.5819 40.614 36.0826H44V26.2105L35.6473 13.3779ZM32.3241 29.3612H30.3033C29.8183 29.3612 29.4321 28.9311 29.4321 28.391C29.4321 27.8509 29.8183 27.4208 30.3033 27.4208H32.3241C32.8091 27.4208 33.1953 27.8509 33.1953 28.391C33.2313 28.9311 32.8181 29.3612 32.3241 29.3612ZM29.8183 25.4304V15.8684H34.5336L40.7487 25.4304H29.8183Z" fill="black"/>
<path d="M0 36.1227H2.23637C2.23637 32.6219 4.7871 29.7814 7.9306 29.7814C11.0741 29.7814 13.6248 32.6219 13.6248 36.1227H25.8036V28.9712H0V36.1227Z" fill="black"/>
<path d="M0 8.52686V14.128H5.2721V13.2178C5.2721 11.5775 6.98755 10.6673 8.12819 11.7075L13.3913 16.4685C14.2535 17.2486 14.2535 18.7189 13.3823 19.4991L8.11921 24.2301C6.96959 25.2603 5.26311 24.3501 5.26311 22.7098V21.7896H0V27.0406H25.7947V8.53686H0V8.52686Z" fill="black"/>
<path d="M7.0594 22.5995L12.2237 17.9686L7.0594 13.3076V16.0982H0V19.839H7.0594V22.5995Z" fill="black"/>
</svg>
